# xmcd
#
# Track frame offsets:
#	150
#	20016
#	43275
#	58903
#	78804
#	98921
#	116990
#	138953
#	156061
#	176812
#	196400
#	216670
#
# Disc length: 3149 seconds
#
# Revision: 1270956646
# Processed by: cddbd v1.5.2PL0 Copyright (c) Steve Scherf et al.
# Submitted via: EZCDAudioConverter 8.0.2.1
#
DISCID=b40c4b0c
DTITLE=Various Artist - Như Là Tình Yêu
DYEAR=2001
DGENRE=Miscellaneous
TTITLE0=Nguyên Lộc, Mỹ Hương - Xin chớ vội yêu
TTITLE1=Minh Thuận - Đêm buồn
TTITLE2=Thanh Thảo - Quên sầu đi
TTITLE3=Quang Dũng - Tình không nguôi
TTITLE4=Phương Thanh - Bước chân hoang
TTITLE5=Minh Thuận - Trái tim thơ ngây
TTITLE6=Nguyên Lộc, Mỹ Hương - Giấc mơ vô vọng
TTITLE7=Hồng Ngọc - Đời đẹp quá
TTITLE8=Kỳ Phương, Thu Uyên - Giấc mơ
TTITLE9=Phương Thanh - Cứ vui lên
TTITLE10=MTV - Như Là Tình Yêu
TTITLE11=Soundtrack - Dance
EXTD=
EXTT0=
EXTT1=
EXTT2=
EXTT3=
EXTT4=
EXTT5=
EXTT6=
EXTT7=
EXTT8=
EXTT9=
EXTT10=
EXTT11=
PLAYORDER=
